<?xml version="1.0" encoding="UTF-8" standalone="no"?>
<svg width="512px" height="512px" viewBox="0 0 512 512" version="1.1" xmlns="http://www.w3.org/2000/svg" xmlns:xlink="http://www.w3.org/1999/xlink" xmlns:sketch="http://www.bohemiancoding.com/sketch/ns">
    <!-- Generator: Sketch 3.3.3 (12072) - http://www.bohemiancoding.com/sketch -->
    <title>512</title>
    <desc>Created with Sketch.</desc>
    <defs></defs>
    <g id="Page-1" stroke="none" stroke-width="1" fill="none" fill-rule="evenodd" sketch:type="MSPage">
        <g id="512" sketch:type="MSArtboardGroup" fill="#FFFFFF">
            <text id="WEEKS" sketch:type="MSTextLayer" transform="translate(377.632812, 248.609375) rotate(-90.000000) translate(-377.632812, -248.609375) " font-family="Yuanti TC" font-size="90" font-weight="normal" letter-spacing="7.03125">
                <tspan x="227.632812" y="280.609375">WEEKS</tspan>
            </text>
            <path d="M378.4,458 C368.39995,458 358.300051,456.600014 348.1,453.8 C337.899949,450.999986 328.600042,445.60004 320.2,437.6 C311.799958,429.59996 305.000026,418.700069 299.8,404.9 C294.599974,391.099931 292,373.000112 292,350.6 L292,160.4 C292,138.39989 294.599974,120.40007 299.8,106.4 C305.000026,92.39993 311.799958,81.500039 320.2,73.7 C328.600042,65.899961 337.899949,60.600014 348.1,57.8 C358.300051,54.999986 368.39995,53.6 378.4,53.6 C388.000048,53.6 397.899949,54.999986 408.1,57.8 C418.300051,60.600014 427.599958,65.899961 436,73.7 C444.400042,81.500039 451.199974,92.39993 456.4,106.4 C461.600026,120.40007 464.2,138.39989 464.2,160.4 L464.2,170 L445,170 L445,160.4 C445,129.599846 439.400056,107.20007 428.2,93.2 C416.599942,79.19993 400.000108,72.2 378.4,72.2 C356.39989,72.2 339.600058,79.19993 328,93.2 C316.799944,107.20007 311.2,129.599846 311.2,160.4 L311.2,350.6 C311.2,381.400154 316.999942,403.999928 328.6,418.4 C339.400054,432.40007 355.999888,439.4 378.4,439.4 C400.000108,439.4 416.599942,432.40007 428.2,418.4 C439.400056,403.599926 445,381.000152 445,350.6 L445,341 L464.2,341 L464.2,350.6 C464.2,373.000112 461.600026,391.099931 456.4,404.9 C451.199974,418.700069 444.400042,429.59996 436,437.6 C427.599958,445.60004 418.300051,450.999986 408.1,453.8 C397.899949,456.600014 388.000048,458 378.4,458 L378.4,458 Z" id="XC" sketch:type="MSShapeGroup"></path>
            <text id="x" sketch:type="MSTextLayer" font-family="OCR A Std" font-size="288" font-weight="normal">
                <tspan x="48" y="333">x</tspan>
            </text>
            <path d="M239.52497,107.180247 C222.861798,75.5581817 189.669145,54 151.44131,54 C113.698601,54 80.8640896,75.0144887 64,105.981241 C88.4682624,88.3719214 118.49354,78 150.94131,78 C184.118805,78 214.763623,88.8436804 239.52497,107.180247 Z" id="Oval-1" sketch:type="MSShapeGroup"></path>
        </g>
    </g>
</svg>