<?xml version="1.0" encoding="UTF-8" standalone="no"?>
<svg width="512px" height="512px" viewBox="0 0 512 512" version="1.1" xmlns="http://www.w3.org/2000/svg" xmlns:xlink="http://www.w3.org/1999/xlink" xmlns:sketch="http://www.bohemiancoding.com/sketch/ns">
    <!-- Generator: Sketch 3.3.3 (12072) - http://www.bohemiancoding.com/sketch -->
    <title>512</title>
    <desc>Created with Sketch.</desc>
    <defs></defs>
    <g id="Page-1" stroke="none" stroke-width="1" fill="none" fill-rule="evenodd" sketch:type="MSPage">
        <g id="512" sketch:type="MSArtboardGroup" fill="#FFFFFF">
            <path d="M414.950619,38 L471.99753,38 C494.090284,38 512,55.9128689 512,78.0044629 L512,471.995537 C512,494.089392 494.096549,512 471.99753,512 L40.0024704,512 C17.9097161,512 0,494.087131 0,471.995537 L0,78.0044629 C0,55.9106081 17.9034513,38 40.0024704,38 L97.049385,38 L97.049385,38 C97.0165906,38.6644398 97,39.3331434 97,40.0057235 L97,104.994277 C97,127.092928 114.90861,145 137,145 C159.096247,145 177,127.088828 177,104.994277 L177,40.0057235 C177,39.3331373 176.983411,38.6644339 176.950619,38 L335.049385,38 C335.016591,38.6644398 335,39.3331434 335,40.0057235 L335,104.994277 C335,127.092928 352.90861,145 375,145 C397.096247,145 415,127.088828 415,104.994277 L415,40.0057235 C415,39.3331373 414.983411,38.6644339 414.950619,38 L414.950619,38 Z M36,220.995986 C36,198.906813 53.9027318,181 75.9990646,181 L437.000935,181 C459.091809,181 477,198.899217 477,220.995986 L477,436.004014 C477,458.093187 459.097268,476 437.000935,476 L75.9990646,476 C53.9081912,476 36,458.100783 36,436.004014 L36,220.995986 Z" id="Rectangle-1" sketch:type="MSShapeGroup"></path>
            <path d="M152,108.5 L152,20.2956917 C152,12.0114205 145.284271,5.29569173 137,5.29569173 C128.715729,5.29569173 122,12.0114205 122,20.2956917 L122,108.5 C122,116.784271 128.715729,123.5 137,123.5 C145.284271,123.5 152,116.784271 152,108.5 L152,108.5 Z" id="Shape" sketch:type="MSShapeGroup"></path>
            <path d="M390,108.5 L390,20.2956917 C390,12.0114205 383.284271,5.29569173 375,5.29569173 C366.715729,5.29569173 360,12.0114205 360,20.2956917 L360,108.5 C360,116.784271 366.715729,123.5 375,123.5 C383.284271,123.5 390,116.784271 390,108.5 L390,108.5 Z" id="Shape" sketch:type="MSShapeGroup"></path>
            <path d="M157.947754,360.576172 L140.193848,425 L132.02002,425 L117.95752,374.243164 C117.225094,371.635729 116.756349,369.65821 116.55127,368.310547 L116.375488,368.310547 L114.57373,375.957031 L100.862793,425 L92.2495117,425 L75.0668945,360.576172 L83.7680664,360.576172 L93.699707,402.851562 C95.018073,408.3887 95.8530256,412.460924 96.2045898,415.068359 C96.2631839,415.595706 96.2924805,415.90332 96.2924805,415.991211 L96.4682617,415.991211 C97.6401426,410.424777 98.5629849,406.440442 99.2368164,404.038086 L111.497559,360.576172 L121.868652,360.576172 L131.009277,393.139648 C133.294445,401.225626 134.949702,408.842738 135.975098,415.991211 L136.150879,415.991211 C136.766116,412.504865 137.791497,407.832061 139.227051,401.972656 L149.378418,360.576172 L157.947754,360.576172 Z M224.153809,425 L176.033691,425 L176.033691,360.576172 L222.659668,360.576172 L222.659668,368.222656 L184.559082,368.222656 L184.559082,387.910156 L220.19873,387.910156 L220.19873,395.556641 L184.559082,395.556641 L184.559082,417.353516 L224.153809,417.353516 L224.153809,425 Z M294.183105,425 L246.062988,425 L246.062988,360.576172 L292.688965,360.576172 L292.688965,368.222656 L254.588379,368.222656 L254.588379,387.910156 L290.228027,387.910156 L290.228027,395.556641 L254.588379,395.556641 L254.588379,417.353516 L294.183105,417.353516 L294.183105,425 Z M368.82666,425 L357.57666,425 L334.725098,392.436523 L324.090332,402.675781 L324.090332,425 L315.564941,425 L315.564941,360.576172 L324.090332,360.576172 L324.090332,392.524414 L356.126465,360.576172 L367.640137,360.576172 L340.657715,386.679688 L368.82666,425 Z M424.178223,379.472656 C423.826658,375.371073 422.347181,372.287608 419.739746,370.222168 C417.132311,368.156728 413.396997,367.124023 408.533691,367.124023 C404.139138,367.124023 400.564955,367.944328 397.811035,369.584961 C395.057115,371.225594 393.680176,373.613266 393.680176,376.748047 C393.680176,379.531264 394.742177,381.603997 396.866211,382.966309 C398.990245,384.32862 403.055146,385.683587 409.061035,387.03125 C414.393093,388.203131 418.743635,389.404291 422.112793,390.634766 C425.48195,391.865241 428.367664,393.776843 430.77002,396.369629 C433.172375,398.962415 434.373535,402.441384 434.373535,406.806641 C434.373535,412.343778 432.168967,416.943341 427.759766,420.605469 C423.350564,424.267596 417.60111,426.098633 410.51123,426.098633 C401.458451,426.098633 394.683616,424.077169 390.186523,420.03418 C385.689431,415.991191 383.309083,410.747103 383.04541,404.301758 L391.131348,403.598633 C391.512209,408.754909 393.504377,412.512195 397.10791,414.870605 C400.711444,417.229016 405.061986,418.408203 410.159668,418.408203 C414.935082,418.408203 418.794907,417.426768 421.739258,415.463867 C424.683608,413.500967 426.155762,410.834978 426.155762,407.46582 C426.155762,403.950178 424.617691,401.386727 421.541504,399.775391 C418.465317,398.164054 413.301794,396.574715 406.050781,395.007324 C398.799768,393.439934 393.577653,391.235366 390.384277,388.393555 C387.190902,385.551744 385.594238,381.860374 385.594238,377.319336 C385.594238,372.16306 387.615702,367.900407 391.658691,364.53125 C395.70168,361.162093 401.209438,359.477539 408.182129,359.477539 C415.330602,359.477539 421.080056,361.154768 425.430664,364.509277 C429.781272,367.863786 432.088378,372.631805 432.352051,378.813477 L424.178223,379.472656 Z" id="WEEKS" sketch:type="MSShapeGroup"></path>
            <path d="M198.492188,276.023438 L245.953125,327 L228.375,327 L189.703125,285.445312 L151.03125,327 L133.453125,327 L180.914062,276.023438 L133.453125,225.046875 L151.03125,225.046875 L189.703125,266.601562 L228.375,225.046875 L245.953125,225.046875 L198.492188,276.023438 Z M354.867188,295.359375 L368.929688,295.359375 C368.320309,314.250094 362.48443,324.796864 351.421875,327 L274.078125,327 C262.359316,324.656238 256.5,312.937605 256.5,291.84375 L256.5,260.203125 C256.5,239.10927 262.359316,227.390637 274.078125,225.046875 L351.421875,225.046875 C362.48443,227.250011 368.320309,237.796781 368.929688,256.6875 L354.867188,256.6875 C354.304685,244.968691 350.812532,239.109375 344.390625,239.109375 L281.109375,239.109375 C274.07809,239.109375 270.5625,246.140555 270.5625,260.203125 L270.5625,291.84375 C270.5625,305.90632 274.07809,312.9375 281.109375,312.9375 L344.390625,312.9375 C350.812532,312.9375 354.304685,307.078184 354.867188,295.359375 L354.867188,295.359375 Z" id="XC" sketch:type="MSShapeGroup"></path>
        </g>
    </g>
</svg>