<?xml version="1.0" encoding="UTF-8" standalone="no"?>
<svg width="512px" height="512px" viewBox="0 0 512 512" version="1.1" xmlns="http://www.w3.org/2000/svg" xmlns:xlink="http://www.w3.org/1999/xlink" xmlns:sketch="http://www.bohemiancoding.com/sketch/ns">
    <!-- Generator: Sketch 3.3.3 (12072) - http://www.bohemiancoding.com/sketch -->
    <title>512</title>
    <desc>Created with Sketch.</desc>
    <defs></defs>
    <g id="Page-1" stroke="none" stroke-width="1" fill="none" fill-rule="evenodd" sketch:type="MSPage">
        <g id="512" sketch:type="MSArtboardGroup">
            <path d="M435,38 L471.99753,38 C494.090284,38 512,55.9128689 512,78.0044629 L512,471.995537 C512,494.089392 494.096549,512 471.99753,512 L40.0024704,512 C17.9097161,512 0,494.087131 0,471.995537 L0,78.0044629 C0,55.9106081 17.9034513,38 40.0024704,38 L77,38 L77,38 L77,114.999892 C77,131.570079 90.4314575,145 107,145 C123.572185,145 137,131.568494 137,114.999892 L137,38 L375,38 L375,114.999892 C375,131.570079 388.431458,145 405,145 C421.572185,145 435,131.568494 435,114.999892 L435,38 L435,38 Z M36,220.995986 C36,198.906813 53.9027318,181 75.9990646,181 L437.000935,181 C459.091809,181 477,198.899217 477,220.995986 L477,436.004014 C477,458.093187 459.097268,476 437.000935,476 L75.9990646,476 C53.9081912,476 36,458.100783 36,436.004014 L36,220.995986 Z" id="Rectangle-1" fill="#FFFFFF" sketch:type="MSShapeGroup"></path>
            <path d="M107,108.5 L107,20.2956917" id="Line" stroke="#FFFFFF" stroke-width="20" stroke-linecap="round" sketch:type="MSShapeGroup"></path>
            <path d="M405,108.5 L405,20.2956917" id="Line-Copy" stroke="#FFFFFF" stroke-width="20" stroke-linecap="round" sketch:type="MSShapeGroup"></path>
            <text id="XC" sketch:type="MSTextLayer" font-family="Probert" font-size="144" font-weight="normal" sketch:alignment="middle" fill="#FFFFFF">
                <tspan x="133.453125" y="327">XC</tspan>
            </text>
            <text id="WEEKS" sketch:type="MSTextLayer" font-family="Arial Unicode MS" font-size="90" font-weight="normal" sketch:alignment="middle" letter-spacing="10" fill="#FFFFFF">
                <tspan x="73.9682617" y="425">WEEK</tspan>
                <tspan x="379.002441" y="425">S</tspan>
            </text>
        </g>
    </g>
</svg>